<mxfile host="drawio-plugin" modified="2022-01-16T18:10:52.262Z" agent="5.0 (Windows NT 6.2; Win64; x64) AppleWebKit/537.36 (KHTML, like Gecko) Chrome/84.0.4147.105 Safari/537.36" etag="qoyiY-YcpGv-AQJg3tAP" version="14.7.4" type="embed"><diagram id="pK6moic8tZPPqWVi7ZrQ" name="Page-1"><mxGraphModel dx="1843" dy="704" grid="1" gridSize="10" guides="1" tooltips="1" connect="1" arrows="1" fold="1" page="1" pageScale="1" pageWidth="850" pageHeight="1100" background="#FFFFFF" math="0" shadow="0"><root><mxCell id="0"/><mxCell id="1" parent="0"/><mxCell id="7" value="" style="edgeStyle=orthogonalEdgeStyle;rounded=0;orthogonalLoop=1;jettySize=auto;html=1;" parent="1" source="9" target="11" edge="1"><mxGeometry relative="1" as="geometry"/></mxCell><mxCell id="8" style="edgeStyle=orthogonalEdgeStyle;rounded=0;orthogonalLoop=1;jettySize=auto;html=1;entryX=0;entryY=0.5;entryDx=0;entryDy=0;" parent="1" source="9" target="13" edge="1"><mxGeometry relative="1" as="geometry"/></mxCell><mxCell id="9" value="home" style="rounded=0;whiteSpace=wrap;html=1;fillColor=#fff2cc;strokeColor=#d6b656;" parent="1" vertex="1"><mxGeometry y="280" width="120" height="60" as="geometry"/></mxCell><mxCell id="11" value="login" style="whiteSpace=wrap;html=1;rounded=0;" parent="1" vertex="1"><mxGeometry x="200" y="220" width="120" height="60" as="geometry"/></mxCell><mxCell id="13" value="register" style="whiteSpace=wrap;html=1;rounded=0;" parent="1" vertex="1"><mxGeometry x="200" y="330" width="120" height="60" as="geometry"/></mxCell><mxCell id="18" value="routing user" style="rounded=0;whiteSpace=wrap;html=1;fillColor=#ffff88;strokeColor=#36393d;fontStyle=1" parent="1" vertex="1"><mxGeometry y="230" width="90" height="30" as="geometry"/></mxCell><mxCell id="19" style="edgeStyle=orthogonalEdgeStyle;rounded=0;orthogonalLoop=1;jettySize=auto;html=1;entryX=0;entryY=0.5;entryDx=0;entryDy=0;" parent="1" source="20" target="28" edge="1"><mxGeometry relative="1" as="geometry"/></mxCell><mxCell id="20" value="home" style="rounded=0;whiteSpace=wrap;html=1;" parent="1" vertex="1"><mxGeometry x="460" y="620" width="120" height="60" as="geometry"/></mxCell><mxCell id="21" value="" style="edgeStyle=orthogonalEdgeStyle;rounded=0;orthogonalLoop=1;jettySize=auto;html=1;" parent="1" source="22" target="24" edge="1"><mxGeometry relative="1" as="geometry"/></mxCell><mxCell id="22" value="&lt;span style=&quot;color: rgb(240 , 240 , 240) ; background-color: rgb(42 , 42 , 42)&quot;&gt;home&lt;/span&gt;" style="rounded=0;whiteSpace=wrap;html=1;fillColor=#fff2cc;strokeColor=#d6b656;" parent="1" vertex="1"><mxGeometry y="620" width="120" height="60" as="geometry"/></mxCell><mxCell id="23" style="edgeStyle=orthogonalEdgeStyle;rounded=0;orthogonalLoop=1;jettySize=auto;html=1;entryX=0;entryY=0.5;entryDx=0;entryDy=0;" parent="1" source="24" target="20" edge="1"><mxGeometry relative="1" as="geometry"/></mxCell><mxCell id="24" value="login" style="whiteSpace=wrap;html=1;rounded=0;" parent="1" vertex="1"><mxGeometry x="250" y="620" width="120" height="60" as="geometry"/></mxCell><mxCell id="25" style="edgeStyle=orthogonalEdgeStyle;rounded=0;orthogonalLoop=1;jettySize=auto;html=1;" parent="1" target="32" edge="1"><mxGeometry relative="1" as="geometry"><mxPoint x="550" y="800" as="sourcePoint"/></mxGeometry></mxCell><mxCell id="27" style="edgeStyle=orthogonalEdgeStyle;rounded=0;orthogonalLoop=1;jettySize=auto;html=1;entryX=0.5;entryY=0;entryDx=0;entryDy=0;exitX=0.5;exitY=1;exitDx=0;exitDy=0;" parent="1" source="87" target="54" edge="1"><mxGeometry relative="1" as="geometry"/></mxCell><mxCell id="89" style="edgeStyle=orthogonalEdgeStyle;rounded=0;orthogonalLoop=1;jettySize=auto;html=1;exitX=0.5;exitY=1;exitDx=0;exitDy=0;entryX=1;entryY=0.5;entryDx=0;entryDy=0;" parent="1" source="28" target="87" edge="1"><mxGeometry relative="1" as="geometry"/></mxCell><mxCell id="90" style="edgeStyle=orthogonalEdgeStyle;rounded=0;orthogonalLoop=1;jettySize=auto;html=1;exitX=0.5;exitY=1;exitDx=0;exitDy=0;entryX=0;entryY=0.5;entryDx=0;entryDy=0;" parent="1" source="28" target="91" edge="1"><mxGeometry relative="1" as="geometry"><mxPoint x="800" y="810" as="targetPoint"/></mxGeometry></mxCell><mxCell id="118" value="" style="edgeStyle=orthogonalEdgeStyle;rounded=0;orthogonalLoop=1;jettySize=auto;html=1;" edge="1" parent="1" source="28" target="117"><mxGeometry relative="1" as="geometry"/></mxCell><mxCell id="28" value="Admin dashboard" style="rounded=0;whiteSpace=wrap;html=1;" parent="1" vertex="1"><mxGeometry x="690" y="620" width="120" height="60" as="geometry"/></mxCell><mxCell id="32" value="add users" style="rounded=0;whiteSpace=wrap;html=1;" parent="1" vertex="1"><mxGeometry x="390" y="820" width="120" height="60" as="geometry"/></mxCell><mxCell id="38" value="routing admin" style="rounded=0;whiteSpace=wrap;html=1;fillColor=#ffff88;strokeColor=#36393d;fontStyle=1" parent="1" vertex="1"><mxGeometry y="570" width="90" height="30" as="geometry"/></mxCell><mxCell id="52" style="edgeStyle=orthogonalEdgeStyle;rounded=0;orthogonalLoop=1;jettySize=auto;html=1;entryX=0.608;entryY=0.008;entryDx=0;entryDy=0;entryPerimeter=0;" parent="1" source="54" target="56" edge="1"><mxGeometry relative="1" as="geometry"/></mxCell><mxCell id="53" style="edgeStyle=orthogonalEdgeStyle;rounded=0;orthogonalLoop=1;jettySize=auto;html=1;entryX=0.5;entryY=0;entryDx=0;entryDy=0;" parent="1" source="54" target="57" edge="1"><mxGeometry relative="1" as="geometry"/></mxCell><mxCell id="54" value="view all users" style="rounded=0;whiteSpace=wrap;html=1;" parent="1" vertex="1"><mxGeometry x="570" y="820" width="120" height="60" as="geometry"/></mxCell><mxCell id="56" value="update" style="rounded=0;whiteSpace=wrap;html=1;" parent="1" vertex="1"><mxGeometry x="480" y="1010" width="120" height="60" as="geometry"/></mxCell><mxCell id="57" value="delete" style="rounded=0;whiteSpace=wrap;html=1;" parent="1" vertex="1"><mxGeometry x="640" y="1010" width="120" height="60" as="geometry"/></mxCell><mxCell id="62" value="" style="endArrow=classic;html=1;exitX=1;exitY=0.5;exitDx=0;exitDy=0;" parent="1" source="11" edge="1"><mxGeometry width="50" height="50" relative="1" as="geometry"><mxPoint x="470" y="300" as="sourcePoint"/><mxPoint x="420" y="250" as="targetPoint"/></mxGeometry></mxCell><mxCell id="66" value="" style="endArrow=classic;html=1;exitX=0.5;exitY=0;exitDx=0;exitDy=0;entryX=0.5;entryY=1;entryDx=0;entryDy=0;" parent="1" source="13" target="11" edge="1"><mxGeometry width="50" height="50" relative="1" as="geometry"><mxPoint x="400" y="350" as="sourcePoint"/><mxPoint x="260" y="300" as="targetPoint"/></mxGeometry></mxCell><mxCell id="108" style="edgeStyle=orthogonalEdgeStyle;rounded=0;orthogonalLoop=1;jettySize=auto;html=1;exitX=1;exitY=0.5;exitDx=0;exitDy=0;" edge="1" parent="1" source="83" target="107"><mxGeometry relative="1" as="geometry"/></mxCell><mxCell id="83" value="products" style="whiteSpace=wrap;html=1;rounded=0;" parent="1" vertex="1"><mxGeometry x="200" y="430" width="120" height="60" as="geometry"/></mxCell><mxCell id="84" value="" style="endArrow=classic;html=1;" parent="1" edge="1"><mxGeometry width="50" height="50" relative="1" as="geometry"><mxPoint x="160" y="360" as="sourcePoint"/><mxPoint x="200" y="460" as="targetPoint"/><Array as="points"><mxPoint x="160" y="460"/></Array></mxGeometry></mxCell><mxCell id="87" value="users" style="rounded=0;whiteSpace=wrap;html=1;" parent="1" vertex="1"><mxGeometry x="490" y="720" width="120" height="60" as="geometry"/></mxCell><mxCell id="99" style="edgeStyle=orthogonalEdgeStyle;rounded=0;orthogonalLoop=1;jettySize=auto;html=1;exitX=0.5;exitY=1;exitDx=0;exitDy=0;" parent="1" source="91" target="96" edge="1"><mxGeometry relative="1" as="geometry"/></mxCell><mxCell id="91" value="products" style="rounded=0;whiteSpace=wrap;html=1;" parent="1" vertex="1"><mxGeometry x="870" y="720" width="120" height="60" as="geometry"/></mxCell><mxCell id="92" style="edgeStyle=orthogonalEdgeStyle;rounded=0;orthogonalLoop=1;jettySize=auto;html=1;exitX=0.5;exitY=1;exitDx=0;exitDy=0;" parent="1" source="91" target="93" edge="1"><mxGeometry relative="1" as="geometry"><mxPoint x="930" y="800" as="sourcePoint"/></mxGeometry></mxCell><mxCell id="93" value="add products" style="rounded=0;whiteSpace=wrap;html=1;" parent="1" vertex="1"><mxGeometry x="750" y="830" width="120" height="60" as="geometry"/></mxCell><mxCell id="94" style="edgeStyle=orthogonalEdgeStyle;rounded=0;orthogonalLoop=1;jettySize=auto;html=1;entryX=0.608;entryY=0.008;entryDx=0;entryDy=0;entryPerimeter=0;" parent="1" source="96" target="97" edge="1"><mxGeometry relative="1" as="geometry"/></mxCell><mxCell id="95" style="edgeStyle=orthogonalEdgeStyle;rounded=0;orthogonalLoop=1;jettySize=auto;html=1;entryX=0.5;entryY=0;entryDx=0;entryDy=0;" parent="1" source="96" target="98" edge="1"><mxGeometry relative="1" as="geometry"/></mxCell><mxCell id="96" value="view all products" style="rounded=0;whiteSpace=wrap;html=1;" parent="1" vertex="1"><mxGeometry x="930" y="830" width="120" height="60" as="geometry"/></mxCell><mxCell id="97" value="update" style="rounded=0;whiteSpace=wrap;html=1;" parent="1" vertex="1"><mxGeometry x="840" y="1020" width="120" height="60" as="geometry"/></mxCell><mxCell id="98" value="delete" style="rounded=0;whiteSpace=wrap;html=1;" parent="1" vertex="1"><mxGeometry x="1000" y="1020" width="120" height="60" as="geometry"/></mxCell><mxCell id="103" style="edgeStyle=orthogonalEdgeStyle;rounded=0;orthogonalLoop=1;jettySize=auto;html=1;exitX=1;exitY=0.5;exitDx=0;exitDy=0;entryX=0;entryY=0.5;entryDx=0;entryDy=0;" parent="1" source="100" target="102" edge="1"><mxGeometry relative="1" as="geometry"/></mxCell><mxCell id="100" value="home" style="rounded=0;whiteSpace=wrap;html=1;" parent="1" vertex="1"><mxGeometry x="420" y="220" width="120" height="60" as="geometry"/></mxCell><mxCell id="104" style="edgeStyle=orthogonalEdgeStyle;rounded=0;orthogonalLoop=1;jettySize=auto;html=1;exitX=1;exitY=0.5;exitDx=0;exitDy=0;entryX=0;entryY=0.5;entryDx=0;entryDy=0;" parent="1" source="102" edge="1" target="105"><mxGeometry relative="1" as="geometry"><mxPoint x="740" y="270" as="targetPoint"/></mxGeometry></mxCell><mxCell id="102" value="products" style="whiteSpace=wrap;html=1;rounded=0;" parent="1" vertex="1"><mxGeometry x="600" y="220" width="120" height="60" as="geometry"/></mxCell><mxCell id="111" style="edgeStyle=orthogonalEdgeStyle;rounded=0;orthogonalLoop=1;jettySize=auto;html=1;exitX=0.5;exitY=1;exitDx=0;exitDy=0;entryX=0.5;entryY=0;entryDx=0;entryDy=0;" edge="1" parent="1" source="105" target="109"><mxGeometry relative="1" as="geometry"/></mxCell><mxCell id="105" value="product detail" style="whiteSpace=wrap;html=1;rounded=0;" parent="1" vertex="1"><mxGeometry x="770" y="220" width="120" height="60" as="geometry"/></mxCell><mxCell id="110" style="edgeStyle=orthogonalEdgeStyle;rounded=0;orthogonalLoop=1;jettySize=auto;html=1;exitX=1;exitY=0.5;exitDx=0;exitDy=0;entryX=0.5;entryY=1;entryDx=0;entryDy=0;" edge="1" parent="1" source="107" target="109"><mxGeometry relative="1" as="geometry"/></mxCell><mxCell id="107" value="product detail" style="whiteSpace=wrap;html=1;rounded=0;" vertex="1" parent="1"><mxGeometry x="400" y="430" width="120" height="60" as="geometry"/></mxCell><mxCell id="114" style="edgeStyle=orthogonalEdgeStyle;rounded=0;orthogonalLoop=1;jettySize=auto;html=1;exitX=1;exitY=0.5;exitDx=0;exitDy=0;" edge="1" parent="1" source="109" target="113"><mxGeometry relative="1" as="geometry"/></mxCell><mxCell id="109" value="shopping cart" style="whiteSpace=wrap;html=1;rounded=0;" vertex="1" parent="1"><mxGeometry x="590" y="340" width="120" height="60" as="geometry"/></mxCell><mxCell id="116" style="edgeStyle=orthogonalEdgeStyle;rounded=0;orthogonalLoop=1;jettySize=auto;html=1;exitX=1;exitY=0.5;exitDx=0;exitDy=0;entryX=0;entryY=0.5;entryDx=0;entryDy=0;" edge="1" parent="1" source="113" target="115"><mxGeometry relative="1" as="geometry"/></mxCell><mxCell id="113" value="checkout" style="whiteSpace=wrap;html=1;rounded=0;" vertex="1" parent="1"><mxGeometry x="800" y="340" width="120" height="60" as="geometry"/></mxCell><mxCell id="115" value="payment" style="whiteSpace=wrap;html=1;rounded=0;" vertex="1" parent="1"><mxGeometry x="1020" y="340" width="120" height="60" as="geometry"/></mxCell><mxCell id="120" style="edgeStyle=orthogonalEdgeStyle;rounded=0;orthogonalLoop=1;jettySize=auto;html=1;exitX=1;exitY=0.5;exitDx=0;exitDy=0;" edge="1" parent="1" source="117" target="119"><mxGeometry relative="1" as="geometry"/></mxCell><mxCell id="117" value="view orders" style="whiteSpace=wrap;html=1;rounded=0;" vertex="1" parent="1"><mxGeometry x="920" y="620" width="120" height="60" as="geometry"/></mxCell><mxCell id="119" value="edit orders" style="whiteSpace=wrap;html=1;rounded=0;" vertex="1" parent="1"><mxGeometry x="1120" y="620" width="120" height="60" as="geometry"/></mxCell></root></mxGraphModel></diagram></mxfile>